<svg width="20" height="22" viewBox="0 0 20 22" fill="none" xmlns="http://www.w3.org/2000/svg">
<g clip-path="url(#clip0_39_76)">
<path d="M19.4971 3.84948C19.2503 3.29948 18.9213 2.93281 18.4277 2.65781C18.0986 2.47448 17.7695 2.38281 17.4405 2.38281H2.30346C1.97439 2.47448 1.64533 2.47448 1.31626 2.65781C0.822664 2.93281 0.411332 3.39115 0.246799 3.84948C0.0822664 4.21615 0 4.58281 0 5.04115V17.0495C0 18.4245 1.06946 19.6161 2.30346 19.6161H17.4405C18.6745 19.6161 19.7439 18.4245 19.7439 17.0495V5.04115C19.7439 4.58281 19.6617 4.21615 19.4971 3.84948ZM18.5922 4.39948C18.6745 4.58281 18.7567 4.85781 18.7567 5.04115V17.0495C18.7567 17.3245 18.6745 17.6911 18.5099 17.8745L12.5045 11.1828L18.5922 4.39948ZM17.4405 3.57448C17.605 3.57448 17.7696 3.57448 17.8518 3.66615L10.7769 11.4578C10.2833 12.0078 9.46064 12.0078 8.88478 11.4578L1.89213 3.66615C2.05666 3.57448 2.13893 3.57448 2.30346 3.57448H17.4405ZM1.234 17.8745C1.06946 17.5995 0.987197 17.3245 0.987197 17.0495V5.04115C0.987197 4.85781 1.06946 4.58281 1.15173 4.39948L7.32171 11.1828L1.234 17.8745ZM2.30346 18.4245C2.22119 18.4245 2.13893 18.4245 2.05666 18.4245L7.97984 11.9161L8.22664 12.1911C8.63797 12.6495 9.29611 12.9245 9.87197 12.9245C10.4478 12.9245 11.0237 12.6495 11.5173 12.1911L11.7641 11.9161L17.605 18.4245C17.5227 18.4245 17.4405 18.4245 17.4405 18.4245H2.30346Z" fill="white"/>
</g>
<defs>
<clipPath id="clip0_39_76">
<rect width="19.7439" height="22" fill="white"/>
</clipPath>
</defs>
</svg>
