<svg width="30" height="6" viewBox="0 0 30 6" fill="none" xmlns="http://www.w3.org/2000/svg">
<path d="M2.65712 5.05716H12.9428H17.0571H27.3428C28.479 5.05716 29.4 4.13614 29.4 3.00001C29.4 1.86388 28.479 0.942871 27.3428 0.942871H17.0571H12.9428H2.65712C1.52099 0.942871 0.599976 1.86388 0.599976 3.00001C0.599976 4.13614 1.52099 5.05716 2.65712 5.05716Z" fill="white"/>
<path d="M2.65712 5.05716H12.9428H17.0571H27.3428C28.479 5.05716 29.4 4.13614 29.4 3.00001C29.4 1.86388 28.479 0.942871 27.3428 0.942871H17.0571H12.9428H2.65712C1.52099 0.942871 0.599976 1.86388 0.599976 3.00001C0.599976 4.13614 1.52099 5.05716 2.65712 5.05716Z" fill="white" fill-opacity="0.5"/>
</svg>
