<svg width="40" height="40" viewBox="0 0 40 40" fill="none" xmlns="http://www.w3.org/2000/svg">
<path d="M32.3334 5H5.66671C3.82576 5 2.33337 6.49238 2.33337 8.33333V25C2.33337 26.841 3.82576 28.3333 5.66671 28.3333H32.3334C34.1743 28.3333 35.6667 26.841 35.6667 25V8.33333C35.6667 6.49238 34.1743 5 32.3334 5Z" fill="white"/>
<path d="M30.2 7H7.8C6.2536 7 5 8.21523 5 9.71429V23.2857C5 24.7848 6.2536 26 7.8 26H30.2C31.7464 26 33 24.7848 33 23.2857V9.71429C33 8.21523 31.7464 7 30.2 7Z" fill="white" stroke="#EC7408" stroke-linecap="round" stroke-linejoin="round"/>
<path d="M13.3334 35H26.6667" stroke="white" stroke-width="4" stroke-linecap="round" stroke-linejoin="round"/>
<path d="M20 28.3333V34.9999" stroke="white" stroke-width="4" stroke-linecap="round" stroke-linejoin="round"/>
</svg>
