<svg width="30" height="30" viewBox="0 0 30 30" fill="none" xmlns="http://www.w3.org/2000/svg">
<path d="M15 29.4001C13.8638 29.4001 12.9428 28.4791 12.9428 27.343V17.0572H2.65712C1.52099 17.0572 0.599976 16.1362 0.599976 15.0001C0.599976 13.864 1.52099 12.943 2.65712 12.943H12.9428V2.65724C12.9428 1.52111 13.8638 0.600098 15 0.600098C16.1361 0.600098 17.0571 1.52111 17.0571 2.65724V12.943H27.3428C28.479 12.943 29.4 13.864 29.4 15.0001C29.4 16.1362 28.479 17.0572 27.3428 17.0572H17.0571V27.343C17.0571 28.4791 16.1361 29.4001 15 29.4001Z" fill="white"/>
</svg>
